<?xml version="1.0" encoding="UTF-8"?>
<svg xmlns="http://www.w3.org/2000/svg" xmlns:xlink="http://www.w3.org/1999/xlink" width="75px" height="75px" viewBox="0 0 75 75" version="1.1">
<g id="surface1">
<path style=" stroke:none;fill-rule:nonzero;fill:rgb(0%,0%,0%);fill-opacity:1;" d="M 37.5 3 C 18.476562 3 3 18.476562 3 37.5 C 3 56.523438 18.476562 72 37.5 72 C 56.523438 72 72 56.523438 72 37.5 C 72 18.476562 56.523438 3 37.5 3 Z M 52.460938 44.300781 C 55.816406 47.28125 56.511719 48.34375 56.625 48.527344 C 58.015625 50.730469 55.085938 51 55.085938 51 L 48.90625 51 C 48.90625 51 47.398438 51.015625 46.113281 50.164062 C 44.019531 48.792969 41.824219 46.132812 40.28125 46.59375 C 38.988281 46.980469 39 48.730469 39 50.222656 C 39 50.761719 38.539062 51 37.5 51 C 36.460938 51 36.027344 51 35.566406 51 C 32.183594 51 28.507812 49.859375 24.84375 46.03125 C 19.660156 40.617188 15.113281 29.710938 15.113281 29.710938 C 15.113281 29.710938 14.84375 29.164062 15.136719 28.828125 C 15.46875 28.453125 16.371094 28.5 16.371094 28.5 L 22.363281 28.5 C 22.363281 28.5 22.925781 28.605469 23.332031 28.890625 C 23.667969 29.125 23.851562 29.574219 23.851562 29.574219 C 23.851562 29.574219 24.859375 32.898438 26.140625 35.015625 C 28.648438 39.152344 29.8125 39.257812 30.664062 38.8125 C 31.90625 38.167969 31.5 33.769531 31.5 33.769531 C 31.5 33.769531 31.554688 31.882812 30.90625 31.039062 C 30.40625 30.386719 29.453125 30.042969 29.035156 29.988281 C 28.699219 29.945312 29.261719 29.351562 29.980469 29.015625 C 30.941406 28.589844 32.246094 28.480469 34.5 28.5 C 36.253906 28.515625 36.757812 28.621094 37.441406 28.777344 C 39.511719 29.257812 39 30.515625 39 34.933594 C 39 36.347656 38.804688 38.339844 39.871094 39 C 40.332031 39.285156 41.910156 39.632812 44.71875 35.074219 C 46.054688 32.910156 47.113281 29.320312 47.113281 29.320312 C 47.113281 29.320312 47.332031 28.925781 47.671875 28.734375 C 48.019531 28.53125 48.011719 28.539062 48.488281 28.539062 C 48.964844 28.539062 53.746094 28.5 54.796875 28.5 C 55.847656 28.5 56.832031 28.488281 57 29.101562 C 57.242188 29.988281 56.226562 33.011719 53.648438 36.296875 C 49.414062 41.691406 48.945312 41.183594 52.460938 44.300781 Z M 52.460938 44.300781 "/>
</g>
</svg>
