<svg xmlns="http://www.w3.org/2000/svg" id="Слой_1" data-name="Слой 1" viewBox="0 0 96 96"><defs><style>.cls-3{fill:none;stroke:#fff;stroke-linecap:round;stroke-linejoin:round;stroke-width:3px}</style></defs><path d="M92 48v.13A44 44 0 1 1 47.87 4H48c1.06 0 2.11 0 3.16.12a42.89 42.89 0 0 1 5.12.67 43.39 43.39 0 0 1 8.1 2.37 44.13 44.13 0 0 1 24.41 24.31 43.22 43.22 0 0 1 2.43 8.24 44 44 0 0 1 .67 5.17C92 45.92 92 47 92 48Z" style="fill:#365885"/><path d="M91 44.5v.12A39.53 39.53 0 1 1 51.38 5h.12c1 0 1.89 0 2.84.11a38.38 38.38 0 0 1 4.59.6 39.33 39.33 0 0 1 5.45 1.45 44.13 44.13 0 0 1 24.41 24.31 38.33 38.33 0 0 1 1.51 5.59 39.22 39.22 0 0 1 .6 4.64c.1.93.1 1.87.1 2.8Z" style="fill:#4b75a2"/><path d="M74.66 21.93a36.47 36.47 0 0 1 3 3.52M58 12a38.11 38.11 0 0 1 11.78 5.76" class="cls-3"/><path d="M62 60.37h5.78s4.19-.31.31-4.32-7.41-5.78-4.19-9 8.56-10.28 3.79-10.28h-7c-.13 0-.92-.22-1.5 1.1a48.66 48.66 0 0 1-3.83 7.19c-1.37 1.86-2.17 3.18-3.23 2.61s-.32-8.91-.32-8.91a2.43 2.43 0 0 0-2.28-2.92c-2.54-.28-6.51-.5-8.3.56-1.38.8-.87 1 .49 1.47s1.86 3.64 1.64 6.3-.84 4.56-2.34 3.28-4.76-7.33-5.2-8.45-.7-2.25-3-2.21-4.42 0-5.12.09-2.34 0-.88 2.65S31.81 50.18 35.38 54s7.37 6.27 11.56 6.35 4.41 0 4.63-2.25 1.06-4.85 3.18-2.64 4.92 5.01 7.25 4.91Z" style="fill:#fff"/></svg>