<?xml version="1.0" encoding="UTF-8"?>
<svg xmlns="http://www.w3.org/2000/svg" xmlns:xlink="http://www.w3.org/1999/xlink" width="75px" height="75px" viewBox="0 0 75 75" version="1.1">
<g id="surface1">
<path style=" stroke:none;fill-rule:nonzero;fill:rgb(0%,0%,0%);fill-opacity:1;" d="M 37.5 3 C 18.476562 3 3 18.476562 3 37.5 C 3 43.441406 4.535156 49.28125 7.445312 54.433594 L 3.054688 70.09375 C 2.910156 70.609375 3.050781 71.160156 3.421875 71.542969 C 3.710938 71.839844 4.097656 72 4.5 72 C 4.621094 72 4.742188 71.984375 4.859375 71.957031 L 21.203125 67.90625 C 26.195312 70.585938 31.816406 72 37.5 72 C 56.523438 72 72 56.523438 72 37.5 C 72 18.476562 56.523438 3 37.5 3 Z M 54.855469 49.675781 C 54.117188 51.71875 50.578125 53.582031 48.875 53.832031 C 47.347656 54.054688 45.417969 54.152344 43.296875 53.484375 C 42.011719 53.082031 40.359375 52.542969 38.246094 51.640625 C 29.363281 47.851562 23.558594 39.019531 23.117188 38.4375 C 22.675781 37.851562 19.5 33.695312 19.5 29.390625 C 19.5 25.085938 21.789062 22.972656 22.601562 22.09375 C 23.414062 21.21875 24.371094 21 24.964844 21 C 25.554688 21 26.144531 21.007812 26.660156 21.03125 C 27.207031 21.058594 27.9375 20.824219 28.65625 22.53125 C 29.390625 24.285156 31.164062 28.589844 31.382812 29.027344 C 31.605469 29.464844 31.753906 29.976562 31.457031 30.5625 C 31.164062 31.144531 31.015625 31.507812 30.574219 32.019531 C 30.128906 32.53125 29.644531 33.160156 29.242188 33.554688 C 28.800781 33.988281 28.339844 34.460938 28.855469 35.339844 C 29.371094 36.214844 31.148438 39.078125 33.78125 41.398438 C 37.164062 44.375 40.019531 45.300781 40.90625 45.738281 C 41.789062 46.175781 42.308594 46.101562 42.824219 45.519531 C 43.339844 44.933594 45.039062 42.964844 45.628906 42.089844 C 46.214844 41.214844 46.808594 41.359375 47.621094 41.652344 C 48.433594 41.941406 52.789062 44.058594 53.671875 44.496094 C 54.558594 44.933594 55.148438 45.152344 55.371094 45.515625 C 55.59375 45.878906 55.59375 47.632812 54.855469 49.675781 Z M 54.855469 49.675781 "/>
</g>
</svg>
