<svg xmlns="http://www.w3.org/2000/svg" id="Слой_1" data-name="Слой 1" viewBox="0 0 96 96"><defs><style>.cls-3{fill:none;stroke:#fff;stroke-linecap:round;stroke-linejoin:round;stroke-width:3px}.cls-4{fill:#fff}</style></defs><path d="M92 48v.13A44 44 0 1 1 47.87 4H48c1.06 0 2.11 0 3.16.12a42.89 42.89 0 0 1 5.12.67 43.39 43.39 0 0 1 8.1 2.37 44.13 44.13 0 0 1 24.41 24.31 43.22 43.22 0 0 1 2.43 8.24 44 44 0 0 1 .67 5.17C92 45.92 92 47 92 48Z" style="fill:#1c852d"/><path d="M91 44.5v.12A39.53 39.53 0 1 1 51.38 5h.12c1 0 1.89 0 2.84.11a38.38 38.38 0 0 1 4.59.6 39.33 39.33 0 0 1 5.45 1.45 44.13 44.13 0 0 1 24.41 24.31 38.33 38.33 0 0 1 1.51 5.59 39.22 39.22 0 0 1 .6 4.64c.1.93.1 1.87.1 2.8Z" style="fill:#269f2e"/><path d="M74.66 21.93a36.47 36.47 0 0 1 3 3.52M58 12a38.11 38.11 0 0 1 11.78 5.76" class="cls-3"/><path d="M46.36 27.74A19.86 19.86 0 0 0 31.37 58l-3.53 10.35 10.8-3.41a19.89 19.89 0 1 0 7.72-37.2Zm2.8 35.94A16 16 0 0 1 40 61.42a1 1 0 0 0-.82-.09l-6.21 2 2-6a1 1 0 0 0-.13-.87 16.15 16.15 0 1 1 14.3 7.14Z" class="cls-4"/><path d="m54.07 50.26 4 2.09c.41.2.69.35.41 1.45s-.35 1.84-1.44 2.52a6.18 6.18 0 0 1-2.13 1c-.55.1-1.11.56-3.56-.36a19.08 19.08 0 0 1-9-6.19c-3.53-4.15-4.59-7.33-3.61-9.86a7.06 7.06 0 0 1 1.17-2 2.47 2.47 0 0 1 1.83-.92c.76-.12 1.5-.57 2.2 1.44s1.13 3 1.26 3.28a1.29 1.29 0 0 1-.4 1.55 12.33 12.33 0 0 0-1.1 1.19.89.89 0 0 0 0 1.1 15 15 0 0 0 3.38 4.15 19.35 19.35 0 0 0 3.17 1.87c.36.16.6.4 1.26-.28s1-1.2 1.41-1.64.73-.65 1.15-.39Z" class="cls-4"/></svg>